<svg xmlns="http://www.w3.org/2000/svg" width="960" height="600" viewBox="0 0 960 600" role="img" aria-labelledby="title desc">
  <title id="title">WorkAtlas demonstration project page</title><desc id="desc">A project summary with task metrics and a structured task list.</desc><rect width="960" height="600" fill="#f8fafc"/>
  <text x="55" y="64" font-family="Arial" font-size="15" fill="#4f46e5">ACTIVE · RESEARCH</text><text x="55" y="110" font-family="Arial" font-size="32" font-weight="700" fill="#0f172a">Reproducible solver benchmark</text><text x="55" y="142" font-family="Arial" font-size="15" fill="#64748b">Compare accuracy, stability, and runtime across representative datasets.</text>
  <g font-family="Arial"><g transform="translate(55 180)"><rect width="130" height="85" rx="13" fill="#fff" stroke="#e2e8f0"/><text x="16" y="28" font-size="12" fill="#64748b">TASKS</text><text x="16" y="62" font-size="25" font-weight="700" fill="#0f172a">12</text></g><g transform="translate(205 180)"><rect width="130" height="85" rx="13" fill="#fff" stroke="#e2e8f0"/><text x="16" y="28" font-size="12" fill="#64748b">OPEN</text><text x="16" y="62" font-size="25" font-weight="700" fill="#0f172a">7</text></g><g transform="translate(355 180)"><rect width="130" height="85" rx="13" fill="#fff" stroke="#e2e8f0"/><text x="16" y="28" font-size="12" fill="#64748b">COMPLETED</text><text x="16" y="62" font-size="25" font-weight="700" fill="#0f172a">5</text></g><g transform="translate(505 180)"><rect width="200" height="85" rx="13" fill="#fff" stroke="#e2e8f0"/><text x="16" y="28" font-size="12" fill="#64748b">NEXT ACTION</text><text x="16" y="57" font-size="14" font-weight="700" fill="#0f172a">Run validation suite</text></g><g transform="translate(725 180)"><rect width="180" height="85" rx="13" fill="#fff" stroke="#e2e8f0"/><text x="16" y="28" font-size="12" fill="#64748b">TARGET DATE</text><text x="16" y="57" font-size="14" font-weight="700" fill="#0f172a">30 September</text></g></g>
  <g transform="translate(55 300)" font-family="Arial"><rect width="850" height="245" rx="16" fill="#fff" stroke="#e2e8f0"/><text x="22" y="38" font-size="18" font-weight="700" fill="#0f172a">Project tasks</text><g font-size="14" fill="#334155"><text x="22" y="91">Validate boundary-condition datasets</text><text x="22" y="146">Profile CPU and memory usage</text><text x="22" y="201">Prepare reproducibility notes</text></g><g font-size="12"><rect x="545" y="70" width="70" height="25" rx="12" fill="#fef3c7"/><text x="560" y="87" fill="#92400e">High</text><rect x="630" y="70" width="82" height="25" rx="12" fill="#e0e7ff"/><text x="648" y="87" fill="#3730a3">To do</text><text x="745" y="87" fill="#64748b">22 July</text><rect x="545" y="125" width="76" height="25" rx="12" fill="#dbeafe"/><text x="557" y="142" fill="#1e40af">Medium</text><rect x="630" y="125" width="93" height="25" rx="12" fill="#f1f5f9"/><text x="644" y="142" fill="#475569">Backlog</text><text x="745" y="142" fill="#64748b">29 July</text><rect x="545" y="180" width="62" height="25" rx="12" fill="#f1f5f9"/><text x="560" y="197" fill="#475569">Low</text><rect x="630" y="180" width="76" height="25" rx="12" fill="#dcfce7"/><text x="648" y="197" fill="#166534">Done</text><text x="745" y="197" fill="#64748b">18 July</text></g></g>
</svg>
